<svg width="207" height="45" viewBox="0 0 207 45" fill="none" xmlns="http://www.w3.org/2000/svg">
<path d="M0 0.972975H14.4748C20.9885 0.972975 26.115 2.91892 29.9147 6.68919C33.654 10.5203 35.5237 15.8108 35.5237 22.6216C35.5237 29.3716 33.654 34.6622 29.9147 38.4932C26.0547 42.3851 20.9282 44.2703 14.4748 44.2703H0V0.972975ZM5.06619 39.6486H14.4748C19.541 39.6486 23.401 38.1892 26.115 35.1486C28.829 32.1689 30.2162 27.973 30.2162 22.6216C30.2162 17.2703 28.829 13.1351 26.115 10.0946C23.401 7.11487 19.541 5.59459 14.4748 5.59459H5.06619V39.6486Z" fill="black"/>
<path d="M62.9858 40.5C60.0908 43.5405 56.4721 45 52.1297 45C47.7269 45 44.1082 43.5405 41.2735 40.5C38.4389 37.5811 37.0517 33.5676 37.0517 28.5811C37.0517 23.5946 38.4389 19.6419 41.2735 16.6622C44.1082 13.6824 47.7269 12.1622 52.1297 12.1622C56.4721 12.1622 60.0908 13.6824 62.9858 16.6622C65.7601 19.6419 67.2076 23.5946 67.2076 28.5811C67.2076 33.5676 65.7601 37.5811 62.9858 40.5ZM44.8319 37.3986C46.6413 39.5878 49.0538 40.6216 52.1297 40.6216C55.1453 40.6216 57.618 39.5878 59.4274 37.3986C61.2367 35.3311 62.1414 32.3514 62.1414 28.5811C62.1414 24.8108 61.2367 21.8311 59.4274 19.7027C57.618 17.6351 55.1453 16.5405 52.1297 16.5405C49.0538 16.5405 46.6413 17.6351 44.8319 19.7027C43.0226 21.8311 42.1179 24.8108 42.1179 28.5811C42.1179 32.3514 43.0226 35.3311 44.8319 37.3986Z" fill="black"/>
<path d="M84.2947 12.1622C87.7325 12.1622 90.4465 13.1351 92.3765 15.0203C94.3065 16.9662 95.2714 19.6419 95.2714 23.0473V44.2703H90.4465V23.5338C90.4465 18.9122 88.034 16.5405 83.3297 16.5405C81.0379 16.5405 79.0476 17.3919 77.3588 19.0946C75.6098 20.7973 74.7654 23.2905 74.7654 26.5135V44.2703H69.9405V12.8919H74.5242V17.5743C76.8763 13.9865 80.1332 12.1622 84.2947 12.1622Z" fill="black"/>
<path d="M110.064 40.0135H122.549V44.2703H97.3988V40.6216L111.632 22.1351C112.296 21.2838 113.08 20.3108 114.045 19.0946C114.95 17.9392 115.492 17.2703 115.673 17.027C113.623 17.1486 111.451 17.1486 109.039 17.1486H98.002V12.8919H121.705V16.5405L107.471 35.027C106.747 35.8784 105.963 36.9122 105.058 38.0676C104.093 39.2838 103.551 39.9527 103.43 40.1351C105.42 40.0743 107.652 40.0135 110.064 40.0135Z" fill="black"/>
<path d="M150.007 28.5811V30.2838H126.365C126.606 33.6892 127.51 36.3041 129.199 38.0068C130.828 39.7095 133.059 40.5608 135.954 40.5608C140.236 40.5608 143.011 38.6149 144.217 34.723H149.223C148.378 37.8851 146.81 40.4392 144.518 42.2635C142.227 44.0878 139.332 45 135.833 45C131.491 45 128.053 43.5405 125.4 40.5608C122.686 37.6419 121.359 33.6284 121.359 28.5811C121.359 23.6554 122.686 19.7027 125.339 16.6622C127.933 13.6824 131.37 12.1622 135.713 12.1622C140.176 12.1622 143.674 13.7432 146.207 16.8446C148.74 20.0068 150.007 23.8987 150.007 28.5811ZM135.713 16.6014C133.18 16.6014 131.069 17.4527 129.501 19.0338C127.872 20.6149 126.847 22.9257 126.485 25.9054H144.82C144.579 23.1689 143.614 20.9189 142.046 19.2162C140.417 17.5135 138.306 16.6014 135.713 16.6014Z" fill="black"/>
<path d="M157.541 44.2703H152.716V0.972975H157.541V44.2703Z" fill="black"/>
<path d="M166.6 44.2703H161.775V0.972975H166.6V44.2703Z" fill="black"/>
<path d="M175.779 8.14865H170.652V2.18919H175.779V8.14865ZM175.658 44.2703H170.833V12.8919H175.658V44.2703Z" fill="black"/>
<path d="M181.79 4.19595C184.624 1.39865 188.122 0 192.284 0C196.385 0 199.883 1.39865 202.778 4.19595C205.553 6.99324 207 10.3986 207 14.4122C207 18.4257 205.553 21.8311 202.778 24.6284C199.883 27.4257 196.385 28.8243 192.284 28.8243C188.122 28.8243 184.624 27.4257 181.79 24.6284C178.895 21.8311 177.508 18.4257 177.508 14.4122C177.508 10.3986 178.895 6.99324 181.79 4.19595ZM192.284 25.9662C195.601 25.9662 198.375 24.8716 200.607 22.6216C202.838 20.3716 203.984 17.6351 203.984 14.4122C203.984 11.1892 202.838 8.4527 200.607 6.14189C198.375 3.9527 195.601 2.7973 192.284 2.7973C188.906 2.7973 186.072 3.9527 183.901 6.14189C181.609 8.4527 180.523 11.1892 180.523 14.4122C180.523 17.6351 181.609 20.3716 183.901 22.6216C186.072 24.8716 188.906 25.9662 192.284 25.9662ZM198.014 17.3311L198.194 19.5811C198.194 20.4932 198.436 21.2838 198.918 21.9527H196.204C195.842 21.4662 195.601 20.6757 195.601 19.5811L195.48 18C195.36 17.1487 195.179 16.6014 194.877 16.2365C194.576 15.9324 194.093 15.75 193.37 15.75H189.208V21.9527H186.554V6.50676H193.068C194.757 6.50676 196.023 6.93243 196.988 7.66216C197.953 8.39189 198.436 9.48649 198.436 10.8243C198.436 12.6486 197.652 13.8649 196.204 14.473C197.29 14.8986 197.893 15.8716 198.014 17.3311ZM189.208 13.3176H193.309C194.877 13.3176 195.722 12.5878 195.722 11.1284C195.722 9.66892 194.817 8.93919 193.068 8.93919H189.208V13.3176Z" fill="black"/>
</svg>
