<svg width="1325" height="1672" viewBox="0 0 1325 1672" fill="none" xmlns="http://www.w3.org/2000/svg">
<path d="M516 829.798L520.854 801.576H528.235L533.089 829.798H527.874L527.032 824.356H522.057L521.215 829.798H516ZM522.9 819.114H526.189L524.705 809.478H524.384L522.9 819.114Z" fill="black"/>
<path d="M535.514 829.798V801.576H543.537C549.073 801.576 551.56 805.124 551.56 809.64C551.56 813.228 549.795 815.526 547.589 816.735L551.881 829.798H546.345L542.775 817.945H540.729V829.798H535.514ZM540.729 813.107H543.376C545.302 813.107 546.345 811.938 546.345 809.962C546.345 807.825 545.222 806.817 543.376 806.817H540.729V813.107Z" fill="black"/>
<path d="M562.568 830C558.236 830 554.545 827.057 554.545 822.259V809.115C554.545 804.358 558.236 801.374 562.568 801.374C566.941 801.374 570.591 804.358 570.591 809.156V810.244H565.376V809.68C565.376 807.866 564.253 806.616 562.568 806.616C560.883 806.616 559.76 807.866 559.76 809.68V821.695C559.76 823.509 560.883 824.759 562.568 824.759C564.253 824.759 565.376 823.509 565.376 821.695V821.13H570.591V822.259C570.591 827.057 566.941 830 562.568 830Z" fill="black"/>
<path d="M574.026 829.798V801.576H579.241V812.946H584.857V801.576H590.072V829.798H584.857V818.187H579.241V829.798H574.026Z" fill="black"/>
<path d="M594.477 829.798V801.576H599.692V829.798H594.477Z" fill="black"/>
<path d="M607.365 829.798L602.31 801.576H607.565L610.975 820.848H611.296L614.706 801.576H619.961L614.907 829.798H607.365Z" fill="black"/>
<path d="M627.784 806.817V813.187H634.603V818.026H627.784V824.557H636.609V829.798H622.569V801.576H636.609V806.817H627.784Z" fill="black"/>
<path d="M646.992 830C642.58 830 638.809 827.178 638.809 822.38V821.13H644.024V821.775C644.024 823.63 645.308 824.759 646.992 824.759C648.677 824.759 649.64 823.751 649.64 822.461C649.64 820.848 648.477 819.921 647.153 819.034L643.663 816.735C640.534 814.679 638.969 812.421 638.969 809.156C638.969 804.439 642.66 801.374 646.832 801.374C651.164 801.374 654.855 804.197 654.855 808.914V810.043H649.64V809.599C649.64 807.825 648.637 806.616 646.872 806.616C645.227 806.616 644.184 807.624 644.184 808.994C644.184 810.688 645.428 811.534 646.792 812.421L650.162 814.639C653.25 816.695 654.855 818.792 654.855 822.138C654.855 826.976 651.164 830 646.992 830Z" fill="black"/>
<path d="M664.882 829.798V801.576H672.745C678.361 801.576 680.928 805.406 680.928 809.881C680.928 812.139 680.166 814.397 678.241 815.728C680.166 817.098 680.928 819.316 680.928 821.493C680.928 825.968 678.361 829.798 672.745 829.798H664.882ZM670.097 824.557H672.544C674.47 824.557 675.713 823.388 675.713 821.493C675.713 819.558 674.39 818.308 672.544 818.308H670.097V824.557ZM670.097 813.026H672.705C674.55 813.026 675.713 811.817 675.713 809.881C675.713 807.946 674.55 806.817 672.705 806.817H670.097V813.026Z" fill="black"/>
<path d="M692.172 830C687.839 830 684.149 827.057 684.149 822.259V809.115C684.149 804.358 687.839 801.374 692.172 801.374C696.544 801.374 700.195 804.358 700.195 809.156V822.259C700.195 827.057 696.544 830 692.172 830ZM689.363 821.695C689.363 823.509 690.487 824.759 692.172 824.759C693.856 824.759 694.98 823.509 694.98 821.695V809.68C694.98 807.866 693.856 806.616 692.172 806.616C690.487 806.616 689.363 807.866 689.363 809.68V821.695Z" fill="black"/>
<path d="M707.436 829.798V806.817H701.619V801.576H718.467V806.817H712.651V829.798H707.436Z" fill="black"/>
<path d="M724.283 829.798V806.817H718.467V801.576H735.314V806.817H729.498V829.798H724.283Z" fill="black"/>
<path d="M742.734 806.817V813.187H749.554V818.026H742.734V824.557H751.559V829.798H737.519V801.576H751.559V806.817H742.734Z" fill="black"/>
<path d="M762.184 830C757.851 830 754.161 827.057 754.161 822.259V809.115C754.161 804.358 757.851 801.374 762.184 801.374C766.556 801.374 770.207 804.318 770.207 809.115V810.244H764.992V809.68C764.992 807.866 763.868 806.616 762.184 806.616C760.499 806.616 759.375 807.866 759.375 809.68V821.695C759.375 823.509 760.499 824.759 762.184 824.759C763.868 824.759 764.992 823.509 764.992 821.695V819.719H762.184V814.437H770.207V822.259C770.207 827.057 766.516 830 762.184 830Z" fill="black"/>
<path d="M772.424 829.798L777.278 801.576H784.659L789.513 829.798H784.298L783.456 824.356H778.481L777.639 829.798H772.424ZM779.324 819.114H782.613L781.129 809.478H780.808L779.324 819.114Z" fill="black"/>
<path d="M797.568 813.32V803.288H795.077V801H802.293V803.288H799.802V813.32H797.568Z" fill="black"/>
<path d="M805.815 813.32H803.581V801H805.711L807.722 806.122H807.859L809.869 801H812V813.32H809.766V807.195H809.629L808.546 809.607H807.034L805.952 807.195H805.815V813.32Z" fill="black"/>
</svg>
